<svg xmlns="http://www.w3.org/2000/svg" viewBox="0 0 400 400" width="1200" height="1200"><defs><filter id="ink" x="-10%" y="-10%" width="120%" height="120%"><feTurbulence type="fractalNoise" baseFrequency="0.045" numOctaves="2" seed="19" result="n"/><feDisplacementMap in="SourceGraphic" in2="n" scale="5" xChannelSelector="R" yChannelSelector="G"/></filter></defs><g filter="url(#ink)"><g transform="translate(0,0) rotate(0 200 240)"><path fill="none" stroke="#000" stroke-width="18" stroke-linejoin="round" stroke-linecap="round" d="M200 62 C268 60 312 128 318 222 C324 318 284 362 200 364 C116 362 76 318 82 222 C88 128 132 60 200 62 Z"/><path fill="none" stroke="#000" stroke-width="18" stroke-linejoin="round" stroke-linecap="round" transform="translate(96,180.0) scale(1,1) rotate(10) scale(1,1.000)" d="M0 0 C-26 18 -40 70 -34 118 C-16 104 4 66 10 22 Z"/><path fill="none" stroke="#000" stroke-width="18" stroke-linejoin="round" stroke-linecap="round" d="M146 356 C132 374 150 384 188 372 C184 362 170 356 146 356 Z"/><path fill="none" stroke="#000" stroke-width="18" stroke-linejoin="round" stroke-linecap="round" d="M254 356 C268 374 250 384 212 372 C216 362 230 356 254 356 Z"/><path fill="none" stroke="#000" stroke-width="18" stroke-linejoin="round" stroke-linecap="round" d="M184 66 C176 40 186 28 196 22 C196 38 200 48 206 58 C210 42 222 34 234 36 C224 46 220 58 218 70"/><path fill="#000" stroke="#fff" stroke-width="5" stroke-linejoin="round" stroke-linecap="round" d="M146 356 C132 374 150 384 188 372 C184 362 170 356 146 356 Z"/><path fill="#000" stroke="#fff" stroke-width="5" stroke-linejoin="round" stroke-linecap="round" d="M254 356 C268 374 250 384 212 372 C216 362 230 356 254 356 Z"/><path fill="#000" stroke="#fff" stroke-width="5" stroke-linejoin="round" stroke-linecap="round" transform="translate(96,180.0) scale(1,1) rotate(10) scale(1,1.000)" d="M0 0 C-26 18 -40 70 -34 118 C-16 104 4 66 10 22 Z"/><path fill="#000" stroke="#fff" stroke-width="5" stroke-linejoin="round" stroke-linecap="round" d="M200 62 C268 60 312 128 318 222 C324 318 284 362 200 364 C116 362 76 318 82 222 C88 128 132 60 200 62 Z"/><path fill="none" stroke="#000" stroke-width="14" stroke-linejoin="round" stroke-linecap="round" d="M184 66 C176 40 186 28 196 22 C196 38 200 48 206 58 C210 42 222 34 234 36 C224 46 220 58 218 70"/><path fill="none" stroke="#fff" stroke-width="5" stroke-linejoin="round" stroke-linecap="round" d="M184 66 C176 40 186 28 196 22 C196 38 200 48 206 58 C210 42 222 34 234 36 C224 46 220 58 218 70"/><path fill="#fff" stroke="none" d="M200 188 C246 188 270 236 268 288 C266 334 238 350 200 350 C162 350 134 334 132 288 C130 236 154 188 200 188 Z"/><circle fill="#fff" stroke="none" cx="164" cy="138" r="22"/><circle cx="170" cy="147" r="10" fill="#000"/><circle fill="#fff" stroke="none" cx="236" cy="138" r="22"/><circle cx="242" cy="147" r="10" fill="#000"/><path d="M187 161 C193 156 207 156 213 161 C210 166 205 172 200 177 C195 172 190 166 187 161 Z" fill="#000" stroke="#000" stroke-linejoin="round" stroke-width="9"/><path fill="#fff" stroke="none" d="M187 161 C193 156 207 156 213 161 C210 166 205 172 200 177 C195 172 190 166 187 161 Z"/><g transform="translate(200,96) scale(0.2) translate(-100,-100)"><clipPath id="gccoffee1"><circle cx="100" cy="100" r="64"/></clipPath><g fill="#fff" clip-path="url(#gccoffee1)"><path d="M139.0 73.7 A47 47 0 1 0 141.5 122.1" fill="none" stroke="#fff" stroke-width="34"/><rect x="98" y="92" width="66" height="24"/><rect x="130" y="92" width="34" height="60"/></g></g><path fill="none" stroke="#000" stroke-width="18" stroke-linejoin="round" stroke-linecap="round" transform="translate(304,180.0) scale(-1,1) rotate(-30) scale(1,1.000)" d="M0 0 C-26 18 -40 70 -34 118 C-16 104 4 66 10 22 Z"/><path fill="#000" stroke="#fff" stroke-width="5" stroke-linejoin="round" stroke-linecap="round" transform="translate(304,180.0) scale(-1,1) rotate(-30) scale(1,1.000)" d="M0 0 C-26 18 -40 70 -34 118 C-16 104 4 66 10 22 Z"/><g transform="translate(262,246) rotate(0)"><path d="M20 -10 q20 0 20 16 q0 16 -20 16" fill="none" stroke="#000" stroke-width="16" stroke-linejoin="round" stroke-linecap="round"/><path d="M20 -10 q20 0 20 16 q0 16 -20 16" fill="none" stroke="#000" stroke-width="7" stroke-linejoin="round" stroke-linecap="round"/><path d="M-22 -26 L22 -26 L20 26 Q0 34 -20 26 Z" fill="none" stroke="#000" stroke-width="12" stroke-linejoin="round" stroke-linecap="round"/><path d="M-22 -26 L22 -26 L20 26 Q0 34 -20 26 Z" fill="#fff" stroke="#000" stroke-width="4" stroke-linejoin="round" stroke-linecap="round"/><path d="M-14 -12 L14 -12" stroke="#000" stroke-width="3"/><g transform="translate(0,8) scale(0.12) translate(-100,-100)"><clipPath id="gcm262246"><circle cx="100" cy="100" r="64"/></clipPath><g fill="#000" clip-path="url(#gcm262246)"><path d="M139.0 73.7 A47 47 0 1 0 141.5 122.1" fill="none" stroke="#000" stroke-width="34"/><rect x="98" y="92" width="66" height="24"/><rect x="130" y="92" width="34" height="60"/></g></g></g><path d="M248 212 q-6.7 -14 0 -28 q6.7 -14 0 -28" fill="none" stroke="#000" stroke-width="10" stroke-linejoin="round" stroke-linecap="round"/><path d="M248 212 q-6.7 -14 0 -28 q6.7 -14 0 -28" fill="none" stroke="#000" stroke-width="4" stroke-linejoin="round" stroke-linecap="round"/><path d="M262 212 q0.0 -14 0 -28 q-0.0 -14 0 -28" fill="none" stroke="#000" stroke-width="10" stroke-linejoin="round" stroke-linecap="round"/><path d="M262 212 q0.0 -14 0 -28 q-0.0 -14 0 -28" fill="none" stroke="#000" stroke-width="4" stroke-linejoin="round" stroke-linecap="round"/><path d="M276 212 q6.7 -14 0 -28 q-6.7 -14 0 -28" fill="none" stroke="#000" stroke-width="10" stroke-linejoin="round" stroke-linecap="round"/><path d="M276 212 q6.7 -14 0 -28 q-6.7 -14 0 -28" fill="none" stroke="#000" stroke-width="4" stroke-linejoin="round" stroke-linecap="round"/></g></g></svg>